<?xml version="1.0" encoding="UTF-8" standalone="no"?>
<svg
   xmlns:dc="http://purl.org/dc/elements/1.1/"
   xmlns:cc="http://creativecommons.org/ns#"
   xmlns:rdf="http://www.w3.org/1999/02/22-rdf-syntax-ns#"
   xmlns:svg="http://www.w3.org/2000/svg"
   xmlns="http://www.w3.org/2000/svg"
   xmlns:sodipodi="http://sodipodi.sourceforge.net/DTD/sodipodi-0.dtd"
   xmlns:inkscape="http://www.inkscape.org/namespaces/inkscape"
   id="svg2"
   height="400.28pt"
   fill-rule="evenodd"
   width="841.89pt"
   version="1.1"
   preserveAspectRatio="xMidYMid"
   viewBox="0 0 29700 20990"
   inkscape:version="0.47 r22583"
   sodipodi:docname="Mosfet_saturation.svg">
  <sodipodi:namedview
     pagecolor="#ffffff"
     bordercolor="#666666"
     borderopacity="1"
     objecttolerance="10"
     gridtolerance="10"
     guidetolerance="10"
     inkscape:pageopacity="0"
     inkscape:pageshadow="2"
     inkscape:window-width="640"
     inkscape:window-height="481"
     id="namedview336"
     showgrid="false"
     inkscape:zoom="0.47166983"
     inkscape:cx="526.18127"
     inkscape:cy="250.175"
     inkscape:window-x="0"
     inkscape:window-y="0"
     inkscape:window-maximized="0"
     inkscape:current-layer="svg2" />
  <metadata
     id="metadata1831">
    <rdf:RDF>
      <cc:Work
         rdf:about="">
        <dc:format>image/svg+xml</dc:format>
        <dc:type
           rdf:resource="http://purl.org/dc/dcmitype/StillImage" />
        <dc:title />
      </cc:Work>
    </rdf:RDF>
  </metadata>
  <defs
     id="defs4" />
  <defs
     id="defs65" />
  <g
     id="Standard"
     visibility="visible">
    <desc
       id="desc87">Master slide</desc>
  </g>
  <g
     id="Pincement_canal"
     visibility="visible"
     transform="matrix(1.795302,0.000000,0.000000,1.795302,-11005.40,-3159.262)">
    <desc
       id="desc90">Slide</desc>
    <g
       id="g92">
      <desc
         id="desc94">Group</desc>
      <path
         id="line198"
         d="M369.25,272.19c-1.68,0-2.42,1.84-2.13,3.28-0.02,18.45,0.07,36.9-0.03,55.34-0.07,4.28-1.82,8.66-5.28,11.44-4.48,3.58-10.15,5.11-15.72,5.97-6.51,0.81-13.06,1.05-19.62,1h-136.94v2.16,2.12h136.94c6.73,0.03,13.48-0.16,20.15-1.09,5.37-0.79,10.82-2.17,15.44-5.1,5.26-3.04,8.75-8.74,9.22-14.78,0.3-6.59,0.05-13.19,0.13-19.78-0.02-12.93,0.04-25.88-0.03-38.81-0.21-0.94-1.14-1.79-2.13-1.75z"
         transform="matrix(23.366895,0,0,23.366895,2106.481,1759.7385)"
         stroke="#000"
         stroke-width="0.04279559"
         fill="#000" />
      <path
         id="path222"
         fill="#000"
         d="M621.28,272.22l-17.53,3.9,0.47,2.07,0.47,2.09,17.53-3.84-0.47-2.1-0.47-2.12zm-38.78,8.56l-21.22,4.69,0.91,4.19,21.22-4.66-0.91-4.22zm-42.44,9.34l-21.22,4.72,0.88,4.13,21.25-4.66-0.91-4.19zm-42.47,9.38l-21.25,4.66,0.94,4.18,21.22-4.65-0.91-4.19zm-42.47,9.38l-21.24,4.65,0.93,4.19,21.25-4.69-0.94-4.15zm-42.46,9.31l-21.22,4.72,0.94,4.15,21.21-4.68-0.93-4.19z"
         transform="matrix(23.366895,0,0,23.366895,2106.481,1759.7385)" />
      <g
         id="g6487"
         fill="#000">
        <line
           id="line104"
           y2="8179"
           x2="16594"
           stroke="#000"
           y1="8170"
           x1="16585" />
        <line
           id="line106"
           y2="8206"
           x2="16471"
           stroke="#000"
           y1="8170"
           x1="16435" />
        <line
           id="line108"
           y2="8233"
           x2="16348"
           stroke="#000"
           y1="8170"
           x1="16285" />
        <line
           id="line110"
           y2="8260"
           x2="16225"
           stroke="#000"
           y1="8170"
           x1="16135" />
        <line
           id="line112"
           y2="8287"
           x2="16102"
           stroke="#000"
           y1="8170"
           x1="15985" />
        <line
           id="line114"
           y2="8314"
           x2="15979"
           stroke="#000"
           y1="8170"
           x1="15835" />
        <line
           id="line116"
           y2="8342"
           x2="15857"
           stroke="#000"
           y1="8170"
           x1="15685" />
        <line
           id="line118"
           y2="8369"
           x2="15734"
           stroke="#000"
           y1="8170"
           x1="15535" />
        <line
           id="line120"
           y2="8396"
           x2="15611"
           stroke="#000"
           y1="8170"
           x1="15385" />
        <line
           id="line122"
           y2="8423"
           x2="15488"
           stroke="#000"
           y1="8170"
           x1="15235" />
        <line
           id="line124"
           y2="8450"
           x2="15365"
           stroke="#000"
           y1="8170"
           x1="15085" />
        <line
           id="line126"
           y2="8477"
           x2="15242"
           stroke="#000"
           y1="8170"
           x1="14935" />
        <line
           id="line128"
           y2="8504"
           x2="15119"
           stroke="#000"
           y1="8170"
           x1="14785" />
        <line
           id="line130"
           y2="8531"
           x2="14996"
           stroke="#000"
           y1="8170"
           x1="14635" />
        <line
           id="line132"
           y2="8558"
           x2="14873"
           stroke="#000"
           y1="8170"
           x1="14485" />
        <line
           id="line134"
           y2="8585"
           x2="14750"
           stroke="#000"
           y1="8170"
           x1="14335" />
        <line
           id="line136"
           y2="8612"
           x2="14627"
           stroke="#000"
           y1="8170"
           x1="14185" />
        <line
           id="line138"
           y2="8639"
           x2="14504"
           stroke="#000"
           y1="8170"
           x1="14035" />
        <line
           id="line140"
           y2="8667"
           x2="14382"
           stroke="#000"
           y1="8170"
           x1="13885" />
        <line
           id="line142"
           y2="8694"
           x2="14259"
           stroke="#000"
           y1="8170"
           x1="13735" />
        <line
           id="line144"
           y2="8721"
           x2="14136"
           stroke="#000"
           y1="8170"
           x1="13585" />
        <line
           id="line146"
           y2="8748"
           x2="14013"
           stroke="#000"
           y1="8170"
           x1="13435" />
        <line
           id="line148"
           y2="8775"
           x2="13890"
           stroke="#000"
           y1="8170"
           x1="13285" />
        <line
           id="line150"
           y2="8802"
           x2="13767"
           stroke="#000"
           y1="8170"
           x1="13135" />
        <line
           id="line152"
           y2="8829"
           x2="13644"
           stroke="#000"
           y1="8170"
           x1="12985" />
        <line
           id="line154"
           y2="8856"
           x2="13521"
           stroke="#000"
           y1="8170"
           x1="12835" />
        <line
           id="line156"
           y2="8883"
           x2="13398"
           stroke="#000"
           y1="8170"
           x1="12685" />
        <line
           id="line158"
           y2="8910"
           x2="13275"
           stroke="#000"
           y1="8170"
           x1="12535" />
        <line
           id="line160"
           y2="8937"
           x2="13152"
           stroke="#000"
           y1="8170"
           x1="12385" />
        <line
           id="line162"
           y2="8964"
           x2="13029"
           stroke="#000"
           y1="8170"
           x1="12235" />
        <line
           id="line164"
           y2="8992"
           x2="12907"
           stroke="#000"
           y1="8170"
           x1="12085" />
        <line
           id="line166"
           y2="9019"
           x2="12784"
           stroke="#000"
           y1="8170"
           x1="11935" />
        <line
           id="line168"
           y2="9046"
           x2="12661"
           stroke="#000"
           y1="8170"
           x1="11785" />
        <line
           id="line170"
           y2="9073"
           x2="12538"
           stroke="#000"
           y1="8170"
           x1="11635" />
        <line
           id="line172"
           y2="9100"
           x2="12415"
           stroke="#000"
           y1="8170"
           x1="11485" />
        <line
           id="line174"
           y2="9127"
           x2="12292"
           stroke="#000"
           y1="8170"
           x1="11335" />
        <line
           id="line176"
           y2="9154"
           x2="12169"
           stroke="#000"
           y1="8170"
           x1="11185" />
        <line
           id="line178"
           y2="9181"
           x2="12046"
           stroke="#000"
           y1="8170"
           x1="11035" />
        <line
           id="line180"
           y2="9208"
           x2="11923"
           stroke="#000"
           y1="8170"
           x1="10885" />
        <line
           id="line182"
           y2="9235"
           x2="11800"
           stroke="#000"
           y1="8170"
           x1="10735" />
        <line
           id="line184"
           y2="9262"
           x2="11677"
           stroke="#000"
           y1="8320"
           x1="10735" />
        <line
           id="line186"
           y2="9289"
           x2="11554"
           stroke="#000"
           y1="8470"
           x1="10735" />
        <line
           id="line188"
           y2="9317"
           x2="11432"
           stroke="#000"
           y1="8620"
           x1="10735" />
        <line
           id="line190"
           y2="9344"
           x2="11309"
           stroke="#000"
           y1="8770"
           x1="10735" />
        <line
           id="line192"
           y2="9371"
           x2="11186"
           stroke="#000"
           y1="8920"
           x1="10735" />
        <line
           id="line194"
           y2="9398"
           x2="11063"
           stroke="#000"
           y1="9070"
           x1="10735" />
        <line
           id="line196"
           y2="9425"
           x2="10940"
           stroke="#000"
           y1="9220"
           x1="10735" />
        <path
           id="path206"
           d="m10735,8120,224,0,0,50,0,50-224,0,0-50,0-50z" />
        <path
           id="path208"
           d="m11467,8120,508,0,0,100-508,0,0-100z" />
        <path
           id="path210"
           d="m12483,8120,508,0,0,100-508,0,0-100z" />
        <path
           id="path212"
           d="m13499,8120,508,0,0,100-508,0,0-100z" />
        <path
           id="path214"
           d="m14515,8120,508,0,0,100-508,0,0-100z" />
        <path
           id="path216"
           d="m15531,8120,508,0,0,100-508,0,0-100z" />
        <path
           id="path218"
           d="m16547,8120,88,0,0,50,0,50-88,0,0-50,0-50z" />
        <path
           id="path220"
           d="m16635,8170,0-50,9,1,8,2,8,4,7,5,6,6,5,7,4,8,2,8,1,9-1,9-2,8-4,8-5,7-6,6-7,5-8,4-6,2-11-49z" />
        <path
           id="path250"
           d="M146.72,272.19v2.15l-1.88,1,46.94,85.38,8.47,59.4,2.13-0.28-0.41,2.1,209.72,38.5,0.37-2.1,0.22,2.16,372.19-34.25h0.12l85.47-4.28-0.09-2.13,1.81,1.16,29.94-47.09-1.78-1.16,2.09,0.47,21.41-98.41-2.13-0.47v-2.15h-774.59zm3.62,4.28h768.32l-16.54,74.44,0.35,0.06-4.53,20.94-29.16,45.84-84.5,4.22,0.1,2.15-0.22-2.15-372.04,34.22-207.87-38.16-8.34-58.41-2.1,0.32,1.88-1.03-4.63-8.38,0.35-0.19-41.07-73.87z"
           transform="matrix(23.366895,0,0,23.366895,2106.481,1759.7385)" />
      </g>
      <path
         id="path252"
         fill="#000"
         d="m6635,10170,44-24,3,8,2,8,0,1-49,7z" />
      <path
         id="path264"
         fill="#000"
         d="m23135,10470,49,11-3,8-4,8,0,0-42-27z" />
      <path
         id="path268"
         fill="#000"
         d="m22435,11570,42,27-5,7-7,6-7,4-8,4-8,2-5,0-2-50z" />
      <path
         id="path272"
         fill="#000"
         d="m20435,11670-5-50,3,0,2,50z" />
      <path
         id="path276"
         fill="#000"
         d="m11735,12470,5,50-9,0-5-1,9-49z" />
      <path
         id="path280"
         fill="#000"
         d="m6835,11570-9,49-8-2-8-4-7-5-7-6-4-7-4-8-2-9,0-1,49-7z" />
      <g
         id="g6338"
         fill="#000">
        <line
           id="line292"
           y2="6270"
           x2="10657"
           stroke="#000"
           y1="6753"
           x1="10174" />
        <line
           id="line294"
           y2="6270"
           x2="10994"
           stroke="#000"
           y1="7170"
           x1="10094" />
        <line
           id="line296"
           y2="6270"
           x2="11331"
           stroke="#000"
           y1="7170"
           x1="10431" />
        <line
           id="line298"
           y2="6270"
           x2="11668"
           stroke="#000"
           y1="7170"
           x1="10768" />
        <line
           id="line300"
           y2="6270"
           x2="12005"
           stroke="#000"
           y1="7170"
           x1="11105" />
        <line
           id="line302"
           y2="6270"
           x2="12342"
           stroke="#000"
           y1="7170"
           x1="11442" />
        <line
           id="line304"
           y2="6270"
           x2="12679"
           stroke="#000"
           y1="7170"
           x1="11779" />
        <line
           id="line306"
           y2="6270"
           x2="13016"
           stroke="#000"
           y1="7170"
           x1="12116" />
        <line
           id="line308"
           y2="6270"
           x2="13353"
           stroke="#000"
           y1="7170"
           x1="12453" />
        <line
           id="line310"
           y2="6270"
           x2="13690"
           stroke="#000"
           y1="7170"
           x1="12790" />
        <line
           id="line312"
           y2="6270"
           x2="14027"
           stroke="#000"
           y1="7170"
           x1="13127" />
        <line
           id="line314"
           y2="6270"
           x2="14364"
           stroke="#000"
           y1="7170"
           x1="13464" />
        <line
           id="line316"
           y2="6270"
           x2="14701"
           stroke="#000"
           y1="7170"
           x1="13801" />
        <line
           id="line318"
           y2="6270"
           x2="15038"
           stroke="#000"
           y1="7170"
           x1="14138" />
        <line
           id="line320"
           y2="6270"
           x2="15375"
           stroke="#000"
           y1="7170"
           x1="14475" />
        <line
           id="line322"
           y2="6270"
           x2="15712"
           stroke="#000"
           y1="7170"
           x1="14812" />
        <line
           id="line324"
           y2="6270"
           x2="16049"
           stroke="#000"
           y1="7170"
           x1="15149" />
        <line
           id="line326"
           y2="6270"
           x2="16386"
           stroke="#000"
           y1="7170"
           x1="15486" />
        <line
           id="line328"
           y2="6270"
           x2="16723"
           stroke="#000"
           y1="7170"
           x1="15823" />
        <line
           id="line330"
           y2="6270"
           x2="17060"
           stroke="#000"
           y1="7170"
           x1="16160" />
        <line
           id="line332"
           y2="6270"
           x2="17397"
           stroke="#000"
           y1="7170"
           x1="16497" />
        <line
           id="line334"
           y2="6270"
           x2="17734"
           stroke="#000"
           y1="7170"
           x1="16834" />
        <line
           id="line336"
           y2="6270"
           x2="18071"
           stroke="#000"
           y1="7170"
           x1="17171" />
        <line
           id="line338"
           y2="6270"
           x2="18408"
           stroke="#000"
           y1="7170"
           x1="17508" />
        <line
           id="line340"
           y2="6270"
           x2="18745"
           stroke="#000"
           y1="7170"
           x1="17845" />
        <line
           id="line342"
           y2="6455"
           x2="18897"
           stroke="#000"
           y1="7170"
           x1="18182" />
        <line
           id="line344"
           y2="6708"
           x2="18981"
           stroke="#000"
           y1="7170"
           x1="18519" />
        <line
           id="line346"
           y2="6961"
           x2="19065"
           stroke="#000"
           y1="7170"
           x1="18856" />
        <line
           id="line348"
           y2="6327"
           x2="18854"
           stroke="#000"
           y1="6270"
           x1="18797" />
        <line
           id="line350"
           y2="6833"
           x2="19023"
           stroke="#000"
           y1="6270"
           x1="18460" />
        <line
           id="line352"
           y2="7170"
           x2="19023"
           stroke="#000"
           y1="6270"
           x1="18123" />
        <line
           id="line354"
           y2="7170"
           x2="18686"
           stroke="#000"
           y1="6270"
           x1="17786" />
        <line
           id="line356"
           y2="7170"
           x2="18349"
           stroke="#000"
           y1="6270"
           x1="17449" />
        <line
           id="line358"
           y2="7170"
           x2="18012"
           stroke="#000"
           y1="6270"
           x1="17112" />
        <line
           id="line360"
           y2="7170"
           x2="17675"
           stroke="#000"
           y1="6270"
           x1="16775" />
        <line
           id="line362"
           y2="7170"
           x2="17338"
           stroke="#000"
           y1="6270"
           x1="16438" />
        <line
           id="line364"
           y2="7170"
           x2="17001"
           stroke="#000"
           y1="6270"
           x1="16101" />
        <line
           id="line366"
           y2="7170"
           x2="16664"
           stroke="#000"
           y1="6270"
           x1="15764" />
        <line
           id="line368"
           y2="7170"
           x2="16327"
           stroke="#000"
           y1="6270"
           x1="15427" />
        <line
           id="line370"
           y2="7170"
           x2="15990"
           stroke="#000"
           y1="6270"
           x1="15090" />
        <line
           id="line372"
           y2="7170"
           x2="15653"
           stroke="#000"
           y1="6270"
           x1="14753" />
        <line
           id="line374"
           y2="7170"
           x2="15316"
           stroke="#000"
           y1="6270"
           x1="14416" />
        <line
           id="line376"
           y2="7170"
           x2="14979"
           stroke="#000"
           y1="6270"
           x1="14079" />
        <line
           id="line378"
           y2="7170"
           x2="14642"
           stroke="#000"
           y1="6270"
           x1="13742" />
        <line
           id="line380"
           y2="7170"
           x2="14305"
           stroke="#000"
           y1="6270"
           x1="13405" />
        <line
           id="line382"
           y2="7170"
           x2="13968"
           stroke="#000"
           y1="6270"
           x1="13068" />
        <line
           id="line384"
           y2="7170"
           x2="13631"
           stroke="#000"
           y1="6270"
           x1="12731" />
        <line
           id="line386"
           y2="7170"
           x2="13294"
           stroke="#000"
           y1="6270"
           x1="12394" />
        <line
           id="line388"
           y2="7170"
           x2="12957"
           stroke="#000"
           y1="6270"
           x1="12057" />
        <line
           id="line390"
           y2="7170"
           x2="12620"
           stroke="#000"
           y1="6270"
           x1="11720" />
        <line
           id="line392"
           y2="7170"
           x2="12283"
           stroke="#000"
           y1="6270"
           x1="11383" />
        <line
           id="line394"
           y2="7170"
           x2="11946"
           stroke="#000"
           y1="6270"
           x1="11046" />
        <line
           id="line396"
           y2="7170"
           x2="11609"
           stroke="#000"
           y1="6270"
           x1="10709" />
        <line
           id="line398"
           y2="7170"
           x2="11272"
           stroke="#000"
           y1="6270"
           x1="10372" />
        <line
           id="line400"
           y2="7170"
           x2="10935"
           stroke="#000"
           y1="6495"
           x1="10260" />
        <line
           id="line402"
           y2="7170"
           x2="10598"
           stroke="#000"
           y1="6748"
           x1="10176" />
        <line
           id="line404"
           y2="7170"
           x2="10261"
           stroke="#000"
           y1="7001"
           x1="10092" />
        <path
           id="path408"
           d="m18882,6254,300,900-47,16-47,16-300-900,47-16,47-16z" />
        <path
           id="path410"
           d="m19135,7170,47-16,2,9,1,8-1,9-2,8-4,8-6,7-6,6-7,5-8,3-9,2-7,1,0-50z" />
        <path
           id="path412"
           d="m19135,7220-9100,0,0-50,0-50,9100,0,0,50,0,50z" />
        <path
           id="path414"
           d="m10035,7170,0,50-9-1-8-2-8-4-7-5-6-6-5-7-4-8-2-8-1-9,1-9,2-7,47,16z" />
        <path
           id="path416"
           d="m9988,7154,300-900,47,16,47,16-300,900-47-16-47-16z" />
        <path
           id="path418"
           d="m10335,6270-47-16,3-8,5-7,6-6,7-6,8-4,8-2,9-1,1,0,0,50z" />
        <path
           id="path420"
           d="m10335,6220,8500,0,0,50,0,50-8500,0,0-50,0-50z" />
        <path
           id="path422"
           d="m18835,6270,0-50,9,1,8,2,8,4,7,5,6,6,5,7,4,8,0,1-47,16z" />
      </g>
      <path
         id="path512"
         fill="#000"
         d="m6535,9970,0,50-9-1-8-2-8-4-7-5-6-6-5-7-1-1,44-24z" />
      <path
         id="path518"
         fill="#000"
         d="m5535,8120,5200,0,0,50,0,50-5200,0,0-50,0-50z" />
      <g
         id="g532"
         font-family="Albany embedded"
         font-weight="400"
         font-size="1129px">
        <g
           id="g534"
           fill="#000">
          <g
             id="g536"
             transform="matrix(1,0,-0.176327,1,2024.763,0)">
            <text
               id="text538">
              <tspan
                 id="tspan540"
                 y="11483"
                 x="20610">p</tspan>
            </text>
          </g>
        </g>
      </g>
      <g
         id="g550"
         font-family="Albany embedded"
         font-weight="400"
         font-size="1129px">
        <g
           id="g552"
           fill="#000">
          <g
             id="g554"
             transform="matrix(1,0,-0.176327,1,1679.691,0)">
            <text
               id="text556">
              <tspan
                 id="tspan558"
                 y="9526"
                 x="7599">n</tspan>
            </text>
          </g>
        </g>
      </g>
      <g
         id="g560"
         font-weight="700"
         transform="translate(281.2086,0)"
         font-size="654px"
         font-family="Albany embedded">
        <g
           id="g562"
           fill="#000">
          <g
             id="g564"
             transform="matrix(1,0,-0.176327,1,1614.097,0)">
            <text
               id="text566">
              <tspan
                 id="tspan568"
                 y="9154"
                 x="8268">+</tspan>
            </text>
          </g>
        </g>
      </g>
      <g
         id="g578"
         font-family="Albany embedded"
         font-weight="400"
         font-size="1129px">
        <g
           id="g580"
           fill="#000">
          <g
             id="g582"
             transform="matrix(1,0,-0.176327,1,1691.328,0)">
            <text
               id="text584">
              <tspan
                 id="tspan586"
                 y="9592"
                 x="20560">n</tspan>
            </text>
          </g>
        </g>
      </g>
      <g
         id="g588"
         font-weight="700"
         transform="translate(257.7745,0)"
         font-size="654px"
         font-family="Albany embedded">
        <g
           id="g590"
           fill="#000">
          <g
             id="g592"
             transform="matrix(1,0,-0.176327,1,1625.735,0)">
            <text
               id="text594">
              <tspan
                 id="tspan596"
                 y="9220"
                 x="21229">+</tspan>
            </text>
          </g>
        </g>
      </g>
      <g
         id="g608"
         fill="#000">
        <path
           id="path610"
           d="m14585,4370,0,1900-100,0,0-1900,100,0z" />
      </g>
      <path
         id="path622"
         fill="#000"
         d="m14533,3520.3c-62.866-0.061-125.89,12.745-183.53,37.717-84.791,36.927-158.72,99.374-206.34,179-46.659,75.91-66.119,168.23-55.185,256.72,10.902,95.711,59.195,185.07,128.87,250.94,26.856,24.086,54.614,47.926,87.254,63.947,70.626,41.885,153.2,61.732,235.05,61.513,59.435-0.6655,118.66-12.984,173.57-35.216,46.925-20.124,91.366-46.094,129.28-80.243,45.902-42.061,85.605-92.54,109.69-150.47,15.509-36.894,25.584-75.613,30.364-115.3,7.442-56.82-1.152-114.6-17.474-169.22-12.838-36.362-28.289-71.975-51.372-103.15-49.183-73.023-121.61-128.95-202.74-162.65-56.141-22.064-116.89-34.336-177.44-33.59zm0,100.04c46.884,0.044,93.598,7.2487,136.38,25.413,47.391,18.5,87.829,45.668,124.13,81.355,21.424,23.509,39.92,45.726,54.61,73.668,35.887,67.346,46.873,148.62,25.804,222.97-11.658,43.754-33.836,86.157-64.066,120.51-28.12,35.114-65.322,61.487-102.94,82.931-95.12,51.557-213.7,56.264-313.45,14.993-46.515-20.414-87.375-47.419-122.48-84.798-32.179-33.999-56.968-74.299-70.962-119.36-10.845-30.985-15.559-66.122-15.011-100.6,1.593-48.333,13.458-92.644,35.932-135.48,26.064-51.05,68.314-92.404,115.63-124.65,24.501-13.968,53.6-29.5,82.5-38.181,35.347-14.111,75.406-18.007,113.92-18.78z" />
      <g
         id="g888"
         font-weight="400"
         font-size="1270px"
         transform="translate(40.976928,152.06286)"
         font-family="Thorndale embedded">
        <g
           id="g890"
           fill="#000">
          <g
             id="g892"
             transform="matrix(1,0,-0.176327,1,784.1261,0)">
            <text
               id="text894"
               y="4190.5938"
               x="15127.22">
              <tspan
                 id="tspan896">Gate</tspan>
            </text>
          </g>
        </g>
      </g>
      <g
         id="g910">
        <g
           id="g912"
           fill="#000">
          <path
             id="path914"
             d="m7085,5120,0,2025-100,0,0-2025,100,0z" />
        </g>
      </g>
      <path
         id="path926"
         fill="#000"
         d="m7031.8,4319.9c-53.02,1.4504-105.99,10.229-154.99,31.072-28.537,10.924-56.008,26.388-81.352,43.154-64.221,45.288-116.8,106.96-149.32,178.63-9.74,28.616-22.392,56.602-27.573,86.811-14.256,73.237-10.947,150.84,14.24,221.28,11.334,33.864,26.73,65.956,46.216,96.082,34.12,50.944,78.257,95.431,130.23,128.15,28.896,18.243,59.512,32.426,91.816,43.106,47.579,16.666,99.036,22.262,149.3,20.986,50.698-2.2626,101.44-11.181,147.92-32.163,37.706-14.857,73.468-36.295,104.42-62.797,46.881-36.733,84.417-85.016,111.64-137.85,12.45-24.482,21.591-50.544,30.114-76.682,15.025-59.314,20.351-121.8,9.3159-182.23-2.9954-34.159-15.478-66.065-27.276-97.787-26.21-62.58-68.879-118.71-121.41-161.79-21.933-17.641-43.721-34.958-69.354-47.056-54.911-29.569-116.16-47.362-178.59-49.833-8.4467-0.3846-16.88-1.2604-25.342-1.0824zm0,100.04c38.768,0.5953,76.529,5.5248,113.46,19.627,84.981,30.142,155.37,97.851,189.58,181.18,28.427,66.608,32.074,144.71,12.45,215.03-6.078,16.721-10.956,33.314-19.354,48.587-17.384,37.918-41.186,69.752-72.369,98.091-27.892,26.914-60.921,48.044-96.707,62.543-10.08,5.143-26.829,10.087-39.295,13.908-67.578,18.209-141.4,13.473-205.68-12.079-23.518-11.27-52.912-24.108-74.522-42.869-45.221-35.39-83.827-80.622-104.03-134.94-5.1241-10.084-10.133-26.818-13.859-39.306-19.136-68.582-13.525-144.24,13.855-208.97,25.801-68.685,80.117-123.79,142.39-160.64,48.064-24.783,100.83-39.84,154.08-40.165z" />
      <g
         id="g1190"
         transform="translate(-397.689,-45.77601)">
        <g
           id="g1192"
           font-family="Thorndale embedded"
           font-weight="400"
           font-size="1270px">
          <g
             id="g1194"
             fill="#000">
            <g
               id="g1196"
               transform="matrix(1,0,-0.176327,1,907.555,0)">
              <text
                 id="text1198"
                 y="4388.4326"
                 x="6798.9019"
                 style="text-anchor:end;text-align:end;">
                <tspan
                   id="tspan1200"
                   style="text-anchor:end;text-align:end;">Source</tspan>
              </text>
            </g>
          </g>
        </g>
      </g>
      <g
         id="g6298"
         fill="#000">
        <path
           id="path256"
           d="m5535,8170-44,24-3-8-2-8-1-9,1-9,2-8,4-8,5-7,7-6,7-5,8-3,8-2,8-1,0,50z" />
        <path
           id="path516"
           d="m5535,8170-44,24-3-8-2-8-1-9,1-8,2-9,4-8,5-7,6-6,8-5,8-3,8-2,8-1,0,50z" />
        <line
           id="line1210"
           y2="7170"
           y1="7268"
           stroke="#000"
           x2="5633"
           x1="5535" />
        <line
           id="line1212"
           y2="7170"
           y1="7418"
           stroke="#000"
           x2="5783"
           x1="5535" />
        <line
           id="line1214"
           y2="7170"
           y1="7568"
           stroke="#000"
           x2="5933"
           x1="5535" />
        <line
           id="line1216"
           y2="7170"
           y1="7718"
           stroke="#000"
           x2="6083"
           x1="5535" />
        <line
           id="line1218"
           y2="7170"
           y1="7868"
           stroke="#000"
           x2="6233"
           x1="5535" />
        <line
           id="line1220"
           y2="7170"
           y1="8018"
           stroke="#000"
           x2="6383"
           x1="5535" />
        <line
           id="line1222"
           y2="7170"
           y1="8168"
           stroke="#000"
           x2="6533"
           x1="5535" />
        <line
           id="line1224"
           y2="7170"
           y1="8170"
           stroke="#000"
           x2="6683"
           x1="5683" />
        <line
           id="line1226"
           y2="7170"
           y1="8170"
           stroke="#000"
           x2="6833"
           x1="5833" />
        <line
           id="line1228"
           y2="7170"
           y1="8170"
           stroke="#000"
           x2="6983"
           x1="5983" />
        <line
           id="line1230"
           y2="7170"
           y1="8170"
           stroke="#000"
           x2="7133"
           x1="6133" />
        <line
           id="line1232"
           y2="7170"
           y1="8170"
           stroke="#000"
           x2="7283"
           x1="6283" />
        <line
           id="line1234"
           y2="7170"
           y1="8170"
           stroke="#000"
           x2="7433"
           x1="6433" />
        <line
           id="line1236"
           y2="7170"
           y1="8170"
           stroke="#000"
           x2="7583"
           x1="6583" />
        <line
           id="line1238"
           y2="7170"
           y1="8170"
           stroke="#000"
           x2="7733"
           x1="6733" />
        <line
           id="line1240"
           y2="7170"
           y1="8170"
           stroke="#000"
           x2="7883"
           x1="6883" />
        <line
           id="line1242"
           y2="7170"
           y1="8170"
           stroke="#000"
           x2="8033"
           x1="7033" />
        <line
           id="line1244"
           y2="7170"
           y1="8170"
           stroke="#000"
           x2="8183"
           x1="7183" />
        <line
           id="line1246"
           y2="7170"
           y1="8170"
           stroke="#000"
           x2="8333"
           x1="7333" />
        <line
           id="line1248"
           y2="7170"
           y1="8170"
           stroke="#000"
           x2="8483"
           x1="7483" />
        <line
           id="line1250"
           y2="7268"
           y1="8170"
           stroke="#000"
           x2="8535"
           x1="7633" />
        <line
           id="line1252"
           y2="7418"
           y1="8170"
           stroke="#000"
           x2="8535"
           x1="7783" />
        <line
           id="line1254"
           y2="7568"
           y1="8170"
           stroke="#000"
           x2="8535"
           x1="7933" />
        <line
           id="line1256"
           y2="7718"
           y1="8170"
           stroke="#000"
           x2="8535"
           x1="8083" />
        <line
           id="line1258"
           y2="7868"
           y1="8170"
           stroke="#000"
           x2="8535"
           x1="8233" />
        <line
           id="line1260"
           y2="8018"
           y1="8170"
           stroke="#000"
           x2="8535"
           x1="8383" />
        <line
           id="line1262"
           y2="8168"
           y1="8170"
           stroke="#000"
           x2="8535"
           x1="8533" />
        <path
           id="path1266"
           d="m7035,8220-1500,0,0-50,0-50,1500,0,0,50,0,50z" />
        <path
           id="path1268"
           d="m5535,8170,0,50-9-1-8-2-8-4-7-5-6-6-5-7-4-8-2-8-1-9,0,0,50,0z" />
        <path
           id="path1270"
           d="m5485,8170,0-1000,50,0,50,0,0,1000-50,0-50,0z" />
        <path
           id="path1272"
           d="m5535,7170-50,0,1-9,2-8,4-8,5-7,6-6,7-5,8-4,8-2,9-1,0,0,0,50z" />
        <path
           id="path1274"
           d="m5535,7120,3000,0,0,50,0,50-3000,0,0-50,0-50z" />
        <path
           id="path1276"
           d="m8535,7170,0-50,9,1,8,2,8,4,7,5,6,6,5,7,4,8,2,8,1,9,0,0-50,0z" />
        <path
           id="path1278"
           d="m8585,7170,0,1000-50,0-50,0,0-1000,50,0,50,0z" />
        <path
           id="path1280"
           d="m8535,8170,50,0-1,9-2,8-4,8-5,7-6,6-7,5-8,4-8,2-9,1,0,0,0-50z" />
        <path
           id="path1282"
           d="m8535,8220-1500,0,0-50,0-50,1500,0,0,50,0,50z" />
      </g>
      <g
         id="g1298">
        <g
           id="g1300"
           fill="#000">
          <path
             id="path1302"
             d="m22185,5120,0,2025-100,0,0-2025,100,0z" />
        </g>
      </g>
      <path
         id="path1314"
         fill="#000"
         d="m22132,4319.9c-53.019,1.5338-106.07,10.064-154.99,31.072-38.529,14.786-74.787,35.883-106.38,62.461-38.317,29.982-70.614,67.612-97.028,108.11-37.956,62.121-60.303,133.58-62.866,206.44-2.666,61.3,8.31,123.15,32.051,179.73,15.904,38.749,37.623,75.23,64.862,107.15,42.94,52.735,99.193,95.234,161.69,121.75,31.629,11.565,63.316,24.249,97.341,27.214,65.626,10.856,134.04,5.8751,197.48-13.681,33.605-12.094,66.601-25.242,96.601-45.155,45.988-29.092,86.603-66.714,118.38-110.99,25.203-33.512,44.127-71.42,57.537-110.91,14.654-36.952,19.463-77.252,22.499-116.54,2.741-49.893-4.184-100.06-17.877-147.96-12.34-32.055-23.233-64.518-42.581-93.364-30.225-49.836-71.205-92.792-118.46-126.82-40.399-29.611-87.212-49.975-135.15-63.955-36.646-10.384-75.168-13.389-113.12-14.553zm0,100.04c33.96,0.4822,65.832,4.4577,98.78,14.452,58.942,18.331,111.94,53.528,151.76,100.74,64.512,74.286,90.62,178.39,70.94,274.9-5.182,24.649-12.619,49.105-23.371,69.959-33.139,73.972-96.192,134.46-171.05,165.02-10.08,5.143-26.829,10.087-39.295,13.908-67.579,18.193-141.4,13.479-205.68-12.079-44.131-18.243-86.005-46.379-118.24-82.782-84.033-87.763-108.31-225.65-63.004-338.03,26.708-70.394,80.285-128.75,145.08-165.92,47.746-25.061,100.97-39.662,154.08-40.164z" />
      <g
         id="g1578">
        <g
           id="g1580"
           font-family="Thorndale embedded"
           font-weight="400"
           font-size="1270px">
          <g
             id="g1582"
             fill="#000">
            <g
               id="g1584"
               transform="matrix(1,0,-0.176327,1,929.5958,0)">
              <text
                 id="text1586"
                 y="4335.2153"
                 x="22490.756">
                <tspan
                   id="tspan1588">Drain</tspan>
              </text>
            </g>
          </g>
        </g>
      </g>
      <path
         id="path1684"
         fill="#000"
         d="m23235,9970,49,11-3,8-4,8-5,7-7,6-7,4-8,4-8,2-7,0,0-50z" />
      <path
         id="path1686"
         fill="#000"
         d="m18435,8119.9c-81.786,13.898-39.175,118.43-49.652,175.4,2.653,415.71-5.299,831.88,3.957,1247.3,16.953,194.08,174.47,344.64,354.23,399.77,333.63,108.28,690.44,69.26,1035.7,77.543h3456.2c15.793-80.393-8.335-120.87-93.761-100.04-1295.5-1.4217-2591,2.8531-3886.5-2.1547-233.24-12.15-499.08-19.032-677.82-190.62-132.61-139.23-82.137-344.15-92.003-517.48v-1039.3c-50.773,5.0017-55.627,1.7598-50.388-50.38z" />
      <g
         id="g6441"
         fill="#000">
        <path
           id="path260"
           d="m23635,8170,0-50,9,1,8,2,8,4,7,5,6,6,5,7,4,8,2,8,1,9-1,9,0,2-49-11z" />
        <line
           id="line1598"
           y2="7170"
           y1="7268"
           stroke="#000"
           x2="20733"
           x1="20635" />
        <line
           id="line1600"
           y2="7170"
           y1="7418"
           stroke="#000"
           x2="20883"
           x1="20635" />
        <line
           id="line1602"
           y2="7170"
           y1="7568"
           stroke="#000"
           x2="21033"
           x1="20635" />
        <line
           id="line1604"
           y2="7170"
           y1="7718"
           stroke="#000"
           x2="21183"
           x1="20635" />
        <line
           id="line1606"
           y2="7170"
           y1="7868"
           stroke="#000"
           x2="21333"
           x1="20635" />
        <line
           id="line1608"
           y2="7170"
           y1="8018"
           stroke="#000"
           x2="21483"
           x1="20635" />
        <line
           id="line1610"
           y2="7170"
           y1="8168"
           stroke="#000"
           x2="21633"
           x1="20635" />
        <line
           id="line1612"
           y2="7170"
           y1="8170"
           stroke="#000"
           x2="21783"
           x1="20783" />
        <line
           id="line1614"
           y2="7170"
           y1="8170"
           stroke="#000"
           x2="21933"
           x1="20933" />
        <line
           id="line1616"
           y2="7170"
           y1="8170"
           stroke="#000"
           x2="22083"
           x1="21083" />
        <line
           id="line1618"
           y2="7170"
           y1="8170"
           stroke="#000"
           x2="22233"
           x1="21233" />
        <line
           id="line1620"
           y2="7170"
           y1="8170"
           stroke="#000"
           x2="22383"
           x1="21383" />
        <line
           id="line1622"
           y2="7170"
           y1="8170"
           stroke="#000"
           x2="22533"
           x1="21533" />
        <line
           id="line1624"
           y2="7170"
           y1="8170"
           stroke="#000"
           x2="22683"
           x1="21683" />
        <line
           id="line1626"
           y2="7170"
           y1="8170"
           stroke="#000"
           x2="22833"
           x1="21833" />
        <line
           id="line1628"
           y2="7170"
           y1="8170"
           stroke="#000"
           x2="22983"
           x1="21983" />
        <line
           id="line1630"
           y2="7170"
           y1="8170"
           stroke="#000"
           x2="23133"
           x1="22133" />
        <line
           id="line1632"
           y2="7170"
           y1="8170"
           stroke="#000"
           x2="23283"
           x1="22283" />
        <line
           id="line1634"
           y2="7170"
           y1="8170"
           stroke="#000"
           x2="23433"
           x1="22433" />
        <line
           id="line1636"
           y2="7170"
           y1="8170"
           stroke="#000"
           x2="23583"
           x1="22583" />
        <line
           id="line1638"
           y2="7268"
           y1="8170"
           stroke="#000"
           x2="23635"
           x1="22733" />
        <line
           id="line1640"
           y2="7418"
           y1="8170"
           stroke="#000"
           x2="23635"
           x1="22883" />
        <line
           id="line1642"
           y2="7568"
           y1="8170"
           stroke="#000"
           x2="23635"
           x1="23033" />
        <line
           id="line1644"
           y2="7718"
           y1="8170"
           stroke="#000"
           x2="23635"
           x1="23183" />
        <line
           id="line1646"
           y2="7868"
           y1="8170"
           stroke="#000"
           x2="23635"
           x1="23333" />
        <line
           id="line1648"
           y2="8018"
           y1="8170"
           stroke="#000"
           x2="23635"
           x1="23483" />
        <line
           id="line1650"
           y2="8168"
           y1="8170"
           stroke="#000"
           x2="23635"
           x1="23633" />
        <path
           id="path1654"
           d="m22135,8220-1500,0,0-50,0-50,1500,0,0,50,0,50z" />
        <path
           id="path1656"
           d="m20635,8170,0,50-9-1-8-2-8-4-7-5-6-6-5-7-4-8-2-8-1-9,0,0,50,0z" />
        <path
           id="path1658"
           d="m20585,8170,0-1000,50,0,50,0,0,1000-50,0-50,0z" />
        <path
           id="path1660"
           d="m20635,7170-50,0,1-9,2-8,4-8,5-7,6-6,7-5,8-4,8-2,9-1,0,0,0,50z" />
        <path
           id="path1662"
           d="m20635,7120,3000,0,0,50,0,50-3000,0,0-50,0-50z" />
        <path
           id="path1664"
           d="m23635,7170,0-50,9,1,8,2,8,4,7,5,6,6,5,7,4,8,2,8,1,9,0,0-50,0z" />
        <path
           id="path1666"
           d="m23685,7170,0,1000-50,0-50,0,0-1000,50,0,50,0z" />
        <path
           id="path1668"
           d="m23635,8170,50,0-1,9-2,8-4,8-5,7-6,6-7,5-8,4-8,2-9,1,0,0,0-50z" />
        <path
           id="path1670"
           d="m23635,8220-1500,0,0-50,0-50,1500,0,0,50,0,50z" />
        <path
           id="path1768"
           d="m23635,8170,0-50,9,1,8,2,8,4,7,5,6,6,5,7,4,8,2,8,1,9-1,9,0,2-49-11z" />
      </g>
      <path
         id="path1780"
         fill="#000"
         d="m11137.964,10795 0,-450 -675,225 675,225z" />
      <path
         id="path1782"
         fill="#000"
         d="m10735,10520,7060,0,0,100-7060,0,0-100z" />
      <g
         id="g1794"
         font-family="Thorndale embedded"
         font-weight="400"
         font-size="1129px">
        <g
           id="g1796"
           fill="#000">
          <g
             id="g1798"
             transform="matrix(1,0,-0.176327,1,2037.987,0)">
            <text
               id="text1800">
              <tspan id="tspan1802" y="11558" x="13735">V</tspan>
			  <tspan id="tspan1812" font-family="Thorndale embedded" font-weight="400" font-size="654px" dy="200px" dx="-400px">DS</tspan>
            </text>
          </g>
        </g>
      </g>
      <g
         id="g1814">
        <desc
           id="desc1816">Drawing</desc>
        <g
           id="g1818" />
      </g>
    </g>
    <g
       id="g1822">
      <desc
         id="desc1824">Drawing</desc>
      <g
         id="g1826" />
    </g>
  </g>
</svg>
